{
  "accessors": [
    {
      "bufferView": 2,
      "componentType": 5126,
      "count": 595,
      "max": [
        1.0,
        0.7791590094566345,
        0.18095499277114868
      ],
      "min": [
        -1.0,
        -0.7791590094566345,
        -0.07153510302305222
      ],
      "type": "VEC3"
    },
    {
      "bufferView": 2,
      "byteOffset": 7140,
      "componentType": 5126,
      "count": 595,
      "max": [
        0.755696713924408,
        0.9994092583656311,
        0.9716017842292786
      ],
      "min": [
        -0.9724481105804443,
        -0.9994091391563416,
        -0.992804765701294
      ],
      "type": "VEC3"
    },
    {
      "bufferView": 3,
      "componentType": 5126,
      "count": 595,
      "max": [
        1.0,
        0.9997895359992981,
        0.9967118501663208,
        1.0
      ],
      "min": [
        -0.9999797344207764,
        -0.881483793258667,
        -0.9967620372772217,
        -1.0
      ],
      "type": "VEC4"
    },
    {
      "bufferView": 1,
      "componentType": 5126,
      "count": 595,
      "max": [
        1.001979947090149,
        0.9757810235023499
      ],
      "min": [
        0.018569299951195717,
        0.018410300835967064
      ],
      "type": "VEC2"
    },
    {
      "bufferView": 0,
      "componentType": 5125,
      "count": 1539,
      "type": "SCALAR"
    }
  ],
  "asset": {
    "extras": {
      "author": "J0Y (https://sketchfab.com/lloydrostek)",
      "license": "CC-BY-4.0 (http://creativecommons.org/licenses/by/4.0/)",
      "source": "https://sketchfab.com/3d-models/medieval-open-book-1-b30b6a9018f842e7b12622387979b0fa",
      "title": "Medieval Open Book 1"
    },
    "generator": "Sketchfab-12.67.0",
    "version": "2.0"
  },
  "bufferViews": [
    {
      "buffer": 0,
      "byteLength": 6156,
      "name": "floatBufferViews",
      "target": 34963
    },
    {
      "buffer": 0,
      "byteLength": 4760,
      "byteOffset": 6156,
      "byteStride": 8,
      "name": "floatBufferViews",
      "target": 34962
    },
    {
      "buffer": 0,
      "byteLength": 14280,
      "byteOffset": 10916,
      "byteStride": 12,
      "name": "floatBufferViews",
      "target": 34962
    },
    {
      "buffer": 0,
      "byteLength": 9520,
      "byteOffset": 25196,
      "byteStride": 16,
      "name": "floatBufferViews",
      "target": 34962
    }
  ],
  "buffers": [
    {
      "byteLength": 34716,
      "uri": "scene.bin"
    }
  ],
  "images": [
    {
      "uri": "textures/Book_02_baseColor.jpeg"
    },
    {
      "uri": "textures/Book_02_metallicRoughness.png"
    },
    {
      "uri": "textures/Book_02_normal.png"
    }
  ],
  "materials": [
    {
      "doubleSided": true,
      "name": "Book_02",
      "normalTexture": {
        "index": 2
      },
      "occlusionTexture": {
        "index": 1
      },
      "pbrMetallicRoughness": {
        "baseColorTexture": {
          "index": 0
        },
        "metallicRoughnessTexture": {
          "index": 1
        }
      }
    }
  ],
  "meshes": [
    {
      "name": "defaultMaterial",
      "primitives": [
        {
          "attributes": {
            "NORMAL": 1,
            "POSITION": 0,
            "TANGENT": 2,
            "TEXCOORD_0": 3
          },
          "indices": 4,
          "material": 0,
          "mode": 4
        }
      ]
    }
  ],
  "nodes": [
    {
      "children": [
        1
      ],
      "matrix": [
        1.0,
        0.0,
        0.0,
        0.0,
        0.0,
        2.220446049250313e-16,
        -1.0,
        0.0,
        0.0,
        1.0,
        2.220446049250313e-16,
        0.0,
        0.0,
        0.0,
        0.0,
        1.0
      ],
      "name": "Sketchfab_model"
    },
    {
      "children": [
        2
      ],
      "matrix": [
        1.0,
        0.0,
        0.0,
        0.0,
        0.0,
        -4.371139006309477e-08,
        0.999999999999999,
        0.0,
        0.0,
        -0.999999999999999,
        -4.371139006309477e-08,
        0.0,
        0.0,
        0.0,
        0.0,
        1.0
      ],
      "name": "Collada visual scene group"
    },
    {
      "children": [
        3
      ],
      "name": "Book_02_low"
    },
    {
      "mesh": 0,
      "name": "defaultMaterial"
    }
  ],
  "samplers": [
    {
      "magFilter": 9729,
      "minFilter": 9987,
      "wrapS": 10497,
      "wrapT": 10497
    }
  ],
  "scene": 0,
  "scenes": [
    {
      "name": "Sketchfab_Scene",
      "nodes": [
        0
      ]
    }
  ],
  "textures": [
    {
      "sampler": 0,
      "source": 0
    },
    {
      "sampler": 0,
      "source": 1
    },
    {
      "sampler": 0,
      "source": 2
    }
  ]
}
