{
  "accessors": [
    {
      "bufferView": 2,
      "componentType": 5126,
      "count": 336,
      "max": [
        8.040300369262695,
        13.918700218200684,
        7.717430114746094
      ],
      "min": [
        -8.040300369262695,
        10.078700065612793,
        -22.80780029296875
      ],
      "type": "VEC3"
    },
    {
      "bufferView": 2,
      "byteOffset": 4032,
      "componentType": 5126,
      "count": 336,
      "max": [
        0.9202904105186462,
        0.985962450504303,
        0.45651742815971375
      ],
      "min": [
        -0.9202904105186462,
        0.3859471380710602,
        -0.3093150854110718
      ],
      "type": "VEC3"
    },
    {
      "bufferView": 1,
      "componentType": 5126,
      "count": 336,
      "max": [
        0.6375929713249207,
        0.9364100098609924
      ],
      "min": [
        0.22995999455451965,
        0.26979708671569824
      ],
      "type": "VEC2"
    },
    {
      "bufferView": 0,
      "componentType": 5125,
      "count": 336,
      "type": "SCALAR"
    },
    {
      "bufferView": 2,
      "byteOffset": 8064,
      "componentType": 5126,
      "count": 7758,
      "max": [
        10.245100021362305,
        14.572699546813965,
        22.164100646972656
      ],
      "min": [
        -10.245100021362305,
        1.0416100025177002,
        -28.591800689697266
      ],
      "type": "VEC3"
    },
    {
      "bufferView": 2,
      "byteOffset": 101160,
      "componentType": 5126,
      "count": 7758,
      "max": [
        1.0,
        1.0,
        1.0
      ],
      "min": [
        -1.0,
        -1.0,
        -1.0
      ],
      "type": "VEC3"
    },
    {
      "bufferView": 1,
      "byteOffset": 2688,
      "componentType": 5126,
      "count": 7758,
      "max": [
        1.1336100101470947,
        0.9960160255432129
      ],
      "min": [
        0.0012489999644458294,
        0.0068160295486450195
      ],
      "type": "VEC2"
    },
    {
      "bufferView": 0,
      "byteOffset": 1344,
      "componentType": 5125,
      "count": 8088,
      "type": "SCALAR"
    },
    {
      "bufferView": 2,
      "byteOffset": 194256,
      "componentType": 5126,
      "count": 1528,
      "max": [
        9.398489952087402,
        7.359670162200928,
        15.96049976348877
      ],
      "min": [
        -9.393879890441895,
        -0.059379901736974716,
        -20.992900848388672
      ],
      "type": "VEC3"
    },
    {
      "bufferView": 2,
      "byteOffset": 212592,
      "componentType": 5126,
      "count": 1528,
      "max": [
        1.0,
        0.998961865901947,
        0.9916930198669434
      ],
      "min": [
        -1.0,
        -0.998961865901947,
        -0.9916959404945374
      ],
      "type": "VEC3"
    },
    {
      "bufferView": 1,
      "byteOffset": 64752,
      "componentType": 5126,
      "count": 1528,
      "max": [
        0.9947879910469055,
        0.9831550121307373
      ],
      "min": [
        0.8576300144195557,
        0.5762490034103394
      ],
      "type": "VEC2"
    },
    {
      "bufferView": 0,
      "byteOffset": 33696,
      "componentType": 5125,
      "count": 1704,
      "type": "SCALAR"
    }
  ],
  "asset": {
    "extras": {
      "author": "danieljorge435 (https://sketchfab.com/danieljorge435)",
      "license": "CC-BY-4.0 (http://creativecommons.org/licenses/by/4.0/)",
      "source": "https://sketchfab.com/3d-models/sport-car-5bf9eb1870594f91a937e8cc2eb922f9",
      "title": "Sport Car"
    },
    "generator": "Sketchfab-12.68.0",
    "version": "2.0"
  },
  "bufferViews": [
    {
      "buffer": 0,
      "byteLength": 40512,
      "name": "floatBufferViews",
      "target": 34963
    },
    {
      "buffer": 0,
      "byteLength": 76976,
      "byteOffset": 40512,
      "byteStride": 8,
      "name": "floatBufferViews",
      "target": 34962
    },
    {
      "buffer": 0,
      "byteLength": 230928,
      "byteOffset": 117488,
      "byteStride": 12,
      "name": "floatBufferViews",
      "target": 34962
    }
  ],
  "buffers": [
    {
      "byteLength": 348416,
      "uri": "scene.bin"
    }
  ],
  "images": [
    {
      "uri": "textures/material_baseColor.jpeg"
    }
  ],
  "materials": [
    {
      "doubleSided": true,
      "name": "Mat.1",
      "pbrMetallicRoughness": {
        "baseColorFactor": [
          0.0,
          0.0,
          0.0,
          1.0
        ],
        "metallicFactor": 0.0,
        "roughnessFactor": 0.6
      }
    },
    {
      "doubleSided": true,
      "name": "material",
      "pbrMetallicRoughness": {
        "baseColorTexture": {
          "index": 0
        },
        "metallicFactor": 0.0,
        "roughnessFactor": 0.7151295732
      }
    }
  ],
  "meshes": [
    {
      "name": "windows_Mat.1_0",
      "primitives": [
        {
          "attributes": {
            "NORMAL": 1,
            "POSITION": 0,
            "TEXCOORD_0": 2
          },
          "indices": 3,
          "material": 0,
          "mode": 4
        }
      ]
    },
    {
      "name": "car01_Mat_0",
      "primitives": [
        {
          "attributes": {
            "NORMAL": 5,
            "POSITION": 4,
            "TEXCOORD_0": 6
          },
          "indices": 7,
          "material": 1,
          "mode": 4
        }
      ]
    },
    {
      "name": "frontWheelLeft_1_Mat_0",
      "primitives": [
        {
          "attributes": {
            "NORMAL": 9,
            "POSITION": 8,
            "TEXCOORD_0": 10
          },
          "indices": 11,
          "material": 1,
          "mode": 4
        }
      ]
    }
  ],
  "nodes": [
    {
      "children": [
        1
      ],
      "matrix": [
        0.2566250264644623,
        -2.14608555620645e-16,
        0.9665110111236572,
        0.0,
        0.9665110111236572,
        5.698220261517723e-17,
        -0.2566250264644623,
        0.0,
        0.0,
        1.0,
        2.220446049250313e-16,
        0.0,
        -3.1048171520233154,
        5.297744275195972e-16,
        -2.385891914367676,
        1.0
      ],
      "name": "Sketchfab_model"
    },
    {
      "children": [
        2
      ],
      "matrix": [
        1.0,
        0.0,
        0.0,
        0.0,
        0.0,
        0.0,
        1.0,
        0.0,
        0.0,
        -1.0,
        0.0,
        0.0,
        0.0,
        0.0,
        0.0,
        1.0
      ],
      "name": "car01.fbx"
    },
    {
      "children": [
        3,
        5,
        7
      ],
      "name": "RootNode"
    },
    {
      "children": [
        4
      ],
      "name": "windows"
    },
    {
      "mesh": 0,
      "name": "windows_Mat.1_0"
    },
    {
      "children": [
        6
      ],
      "name": "car01"
    },
    {
      "mesh": 1,
      "name": "car01_Mat_0"
    },
    {
      "children": [
        8
      ],
      "name": "frontWheelLeft_1"
    },
    {
      "mesh": 2,
      "name": "frontWheelLeft_1_Mat_0"
    }
  ],
  "samplers": [
    {
      "magFilter": 9729,
      "minFilter": 9987,
      "wrapS": 10497,
      "wrapT": 10497
    }
  ],
  "scene": 0,
  "scenes": [
    {
      "name": "Sketchfab_Scene",
      "nodes": [
        0
      ]
    }
  ],
  "textures": [
    {
      "sampler": 0,
      "source": 0
    }
  ]
}
