{
  "accessors": [
    {
      "bufferView": 2,
      "componentType": 5126,
      "count": 4983,
      "max": [
        28.399431228637695,
        4.854957580566406,
        38.492576599121094
      ],
      "min": [
        -33.46794128417969,
        -21.520263671875,
        -20.54728126525879
      ],
      "type": "VEC3"
    },
    {
      "bufferView": 2,
      "byteOffset": 59796,
      "componentType": 5126,
      "count": 4983,
      "max": [
        0.9997768998146057,
        0.9996138215065002,
        1.0
      ],
      "min": [
        -0.998823881149292,
        -0.9997707605361938,
        -1.0
      ],
      "type": "VEC3"
    },
    {
      "bufferView": 1,
      "componentType": 5126,
      "count": 4983,
      "max": [
        1.9689266681671143,
        0.9538302421569824
      ],
      "min": [
        0.0045702457427978516,
        0.012396782636642456
      ],
      "type": "VEC2"
    },
    {
      "bufferView": 1,
      "byteOffset": 39864,
      "componentType": 5126,
      "count": 4983,
      "max": [
        0.9655312895774841,
        0.9723256230354309
      ],
      "min": [
        0.04220464080572128,
        0.015823736786842346
      ],
      "type": "VEC2"
    },
    {
      "bufferView": 0,
      "componentType": 5125,
      "count": 20670,
      "type": "SCALAR"
    }
  ],
  "asset": {
    "extras": {
      "author": "Joe (https://sketchfab.com/jhepic)",
      "license": "CC-BY-4.0 (http://creativecommons.org/licenses/by/4.0/)",
      "source": "https://sketchfab.com/3d-models/camp-fire-abff5851ea734cbfa2d9a025425ae5b9",
      "title": "Camp fire"
    },
    "generator": "Sketchfab-12.68.0",
    "version": "2.0"
  },
  "bufferViews": [
    {
      "buffer": 0,
      "byteLength": 82680,
      "name": "floatBufferViews",
      "target": 34963
    },
    {
      "buffer": 0,
      "byteLength": 79728,
      "byteOffset": 82680,
      "byteStride": 8,
      "name": "floatBufferViews",
      "target": 34962
    },
    {
      "buffer": 0,
      "byteLength": 119592,
      "byteOffset": 162408,
      "byteStride": 12,
      "name": "floatBufferViews",
      "target": 34962
    }
  ],
  "buffers": [
    {
      "byteLength": 282000,
      "uri": "scene.bin"
    }
  ],
  "images": [
    {
      "uri": "textures/08_-_Default_baseColor.jpeg"
    },
    {
      "uri": "textures/08_-_Default_metallicRoughness.png"
    },
    {
      "uri": "textures/08_-_Default_emissive.jpeg"
    }
  ],
  "materials": [
    {
      "doubleSided": true,
      "emissiveFactor": [
        1.0,
        1.0,
        1.0
      ],
      "emissiveTexture": {
        "index": 2
      },
      "name": "08_-_Default",
      "occlusionTexture": {
        "index": 1
      },
      "pbrMetallicRoughness": {
        "baseColorTexture": {
          "index": 0
        },
        "metallicRoughnessTexture": {
          "index": 1
        }
      }
    }
  ],
  "meshes": [
    {
      "name": "Fire_Wood_2_low001_08 - Default_0",
      "primitives": [
        {
          "attributes": {
            "NORMAL": 1,
            "POSITION": 0,
            "TEXCOORD_0": 2,
            "TEXCOORD_1": 3
          },
          "indices": 4,
          "material": 0,
          "mode": 4
        }
      ]
    }
  ],
  "nodes": [
    {
      "children": [
        1
      ],
      "matrix": [
        1.4220185279846191,
        0.0,
        0.0,
        0.0,
        0.0,
        3.1575154224241933e-16,
        -1.4220185279846191,
        0.0,
        0.0,
        1.4220185279846191,
        3.1575154224241933e-16,
        0.0,
        0.0,
        0.0,
        0.0,
        1.0
      ],
      "name": "Sketchfab_model"
    },
    {
      "children": [
        2
      ],
      "matrix": [
        1.0,
        0.0,
        0.0,
        0.0,
        0.0,
        0.0,
        1.0,
        0.0,
        0.0,
        -1.0,
        0.0,
        0.0,
        0.0,
        0.0,
        0.0,
        1.0
      ],
      "name": "b24091863c044c28bf2f68e5953d3f36.fbx"
    },
    {
      "children": [
        3
      ],
      "name": "RootNode"
    },
    {
      "children": [
        4
      ],
      "matrix": [
        0.5078637670867278,
        0.4129511771649472,
        1.8755488657607748,
        0.0,
        -0.6969327651665101,
        1.8473987256207707,
        -0.21803674987087587,
        0.0,
        -1.7895521465216395,
        -0.6022679575872651,
        0.6171825099931332,
        0.0,
        0.0,
        0.0,
        0.0,
        1.0
      ],
      "name": "Fire_Wood_2_low001"
    },
    {
      "mesh": 0,
      "name": "Fire_Wood_2_low001_08 - Default_0"
    }
  ],
  "samplers": [
    {
      "magFilter": 9729,
      "minFilter": 9987,
      "wrapS": 10497,
      "wrapT": 10497
    }
  ],
  "scene": 0,
  "scenes": [
    {
      "name": "Sketchfab_Scene",
      "nodes": [
        0
      ]
    }
  ],
  "textures": [
    {
      "sampler": 0,
      "source": 0
    },
    {
      "sampler": 0,
      "source": 1
    },
    {
      "sampler": 0,
      "source": 2
    }
  ]
}
